<?xml version="1.0" encoding="utf-8"?>
<!-- Generator: Adobe Illustrator 16.0.0, SVG Export Plug-In . SVG Version: 6.00 Build 0)  -->
<!DOCTYPE svg PUBLIC "-//W3C//DTD SVG 1.1//EN" "http://www.w3.org/Graphics/SVG/1.1/DTD/svg11.dtd">
<svg version="1.1" id="Layer_1" xmlns="http://www.w3.org/2000/svg" xmlns:xlink="http://www.w3.org/1999/xlink" x="0px" y="0px"
	 width="792px" height="375.337px" viewBox="0 0 792 375.337" enable-background="new 0 0 792 375.337" xml:space="preserve">
<rect display="none" fill="#666666" width="792" height="375"/>
<g>
	<path fill="#FFFFFF" d="M709.286,195.788c-2.709-0.231-5.204-0.116-7.49,0.35c-2.288,0.468-4.69,1.284-7.21,2.45
		c-2.521,1.168-5.648,2.778-9.38,4.83c-2.895,1.588-5.509,3.524-7.841,5.81c-2.334,2.288-4.434,4.784-6.3,7.49
		c-1.868,2.708-3.569,5.554-5.109,8.54c-1.54,2.988-2.962,5.928-4.271,8.82c-0.932,1.96-1.492,4.06-1.68,6.3
		c-0.187,2.24-0.466,4.434-0.84,6.58c-0.933,6.254-0.256,11.294,2.029,15.12c2.288,3.828,5.391,6.44,9.311,7.84
		s8.281,1.656,13.09,0.77c4.806-0.888,9.216-2.87,13.229-5.95c1.681-1.306,3.312-2.752,4.9-4.34c1.586-1.586,3.126-3.22,4.62-4.9
		c0.186,3.64,1.026,6.58,2.52,8.82c0.746,1.028,1.422,2.054,2.03,3.08c0.606,1.028,1.422,1.914,2.45,2.66
		c1.12,0.746,2.332,1.212,3.64,1.4c1.307,0.186,2.637,0.21,3.99,0.07c1.352-0.14,2.682-0.398,3.99-0.77
		c1.306-0.374,2.472-0.794,3.5-1.26c3.266-1.306,6.93-3.382,10.99-6.23c4.06-2.846,8.002-6.042,11.83-9.59
		c3.825-3.546,7.279-7.256,10.359-11.13c3.08-3.872,5.32-7.442,6.72-10.71c0.372-0.932,0.396-1.75,0.07-2.45
		c-0.328-0.7-0.77-1.19-1.33-1.47c-0.56-0.28-1.214-0.326-1.96-0.14c-0.748,0.188-1.354,0.7-1.82,1.54
		c-1.308,2.708-3.128,5.508-5.46,8.4c-2.334,2.894-4.924,5.694-7.77,8.4c-2.849,2.708-5.788,5.18-8.82,7.42
		c-3.034,2.24-5.81,3.968-8.33,5.18c-0.468,0.188-1.33,0.608-2.59,1.26c-1.26,0.654-2.638,1.26-4.13,1.82
		c-1.494,0.56-2.964,0.958-4.41,1.19c-1.448,0.234-2.498,0.07-3.149-0.49c-1.309-1.12-2.148-2.682-2.521-4.69
		c-0.374-2.006-0.468-4.27-0.28-6.79c0.187-2.52,0.631-5.18,1.33-7.98c0.7-2.8,1.471-5.506,2.311-8.12
		c1.025-2.24,1.936-4.502,2.729-6.79c0.792-2.286,1.517-4.596,2.17-6.93c0-1.492-0.35-2.752-1.05-3.78
		c-0.7-1.026-1.588-1.726-2.66-2.1c-1.073-0.372-2.17-0.35-3.29,0.07c-1.119,0.42-2.1,1.33-2.939,2.73
		c0,0.094-0.024,0.164-0.07,0.21c-0.048,0.048-0.07,0.118-0.07,0.21c-0.374,1.028-0.794,2.218-1.26,3.57
		c-0.468,1.354-0.934,2.824-1.399,4.41c-0.935,1.96-1.914,3.898-2.94,5.81c-1.028,1.914-2.1,3.758-3.22,5.53
		c-1.4,2.24-3.059,4.714-4.97,7.42c-1.914,2.708-4.015,5.204-6.301,7.49c-2.288,2.288-4.784,4.224-7.489,5.81
		c-2.709,1.588-5.601,2.428-8.681,2.52c-1.308,0-2.544-0.162-3.71-0.49c-1.168-0.326-2.17-1.002-3.01-2.03
		c-1.028-1.4-1.704-3.01-2.03-4.83c-0.328-1.82-0.468-3.71-0.42-5.67c0.046-1.96,0.256-3.896,0.63-5.81
		c0.372-1.912,0.746-3.57,1.12-4.97c1.212-4.106,3.01-8.212,5.391-12.32c2.38-4.106,5.201-7.84,8.47-11.2
		c3.266-3.36,6.93-6.16,10.99-8.4c4.06-2.24,8.376-3.546,12.949-3.92c1.681-0.186,3.36-0.092,5.04,0.28
		c1.681,0.374,3.36,0.654,5.04,0.84c0.933,0.094,1.702-0.116,2.311-0.63c0.605-0.512,0.979-1.072,1.12-1.68
		c0.14-0.606,0.021-1.236-0.351-1.89c-0.374-0.652-1.028-1.072-1.96-1.26C715.445,196.466,711.991,196.022,709.286,195.788z
		 M648.387,182.838c0.372-0.28,0.512-0.28,0.42,0c-0.188,0.374-0.49,0.7-0.91,0.98c-0.42,0.28-0.63,0.654-0.63,1.12
		c0,0.188,0.28,0.164,0.84-0.07c0.561-0.232,0.84-0.21,0.84,0.07c0,0.28-0.258,0.398-0.77,0.35c-0.515-0.046-0.818,0.118-0.91,0.49
		c-0.094,0.188,0.07,0.258,0.49,0.21c0.42-0.046,0.722-0.07,0.91-0.07c1.212,0,2.191-0.35,2.939-1.05
		c0.746-0.7,1.353-1.562,1.82-2.59c0.84-0.466,1.352-1.072,1.54-1.82c0.186-0.746,0.14-1.4-0.141-1.96
		c-0.279-0.56-0.77-1.002-1.47-1.33c-0.7-0.326-1.518-0.302-2.45,0.07c-0.188-0.092-0.443-0.116-0.77-0.07
		c-0.328,0.048-0.444-0.022-0.35-0.21c0.186-0.186,0.466-0.21,0.84-0.07c0.371,0.14,0.56,0.07,0.56-0.21
		c0-0.186-0.444-0.42-1.33-0.7c-0.888-0.28-1.378-0.42-1.47-0.42c-0.748,0.094-1.54,0.328-2.38,0.7
		c-0.84,0.374-1.564,0.864-2.17,1.47c-0.608,0.608-1.099,1.284-1.471,2.03c-0.374,0.748-0.42,1.494-0.14,2.24
		c-0.188,0.934-0.07,1.704,0.35,2.31c0.421,0.608,0.933,1.004,1.54,1.19c0.606,0.188,1.236,0.14,1.891-0.14
		c0.651-0.28,1.166-0.886,1.54-1.82C647.732,183.352,648.013,183.118,648.387,182.838z M635.297,204.818
		c-0.889,2.24-1.799,4.528-2.73,6.86c-0.748,1.96-1.609,4.41-2.59,7.35c-0.979,2.94-1.798,5.39-2.45,7.35
		c-0.372,1.308-0.979,3.244-1.819,5.81c-0.841,2.568-1.656,5.438-2.45,8.61c-0.792,3.174-1.517,6.488-2.17,9.94
		c-0.652,3.454-0.956,6.674-0.91,9.66c0.048,2.988,0.538,5.6,1.47,7.84c0.935,2.24,2.521,3.686,4.76,4.34
		c1.215,0.372,2.473,0.466,3.78,0.28c1.306-0.188,2.612-0.328,3.92-0.42c2.521-0.188,4.97-1.12,7.351-2.8
		c2.38-1.68,4.712-3.78,7-6.3c2.285-2.52,4.525-5.296,6.72-8.33c2.191-3.032,4.34-5.972,6.439-8.82
		c2.101-2.846,4.106-5.436,6.021-7.77c1.912-2.332,3.802-4.106,5.67-5.32c0.84-0.466,1.352-1.072,1.54-1.82
		c0.186-0.746,0.14-1.4-0.14-1.96c-0.28-0.56-0.771-1.002-1.471-1.33c-0.699-0.326-1.518-0.302-2.449,0.07
		c-2.055,0.934-4.154,2.428-6.301,4.48c-2.147,2.054-4.34,4.34-6.58,6.86c-2.239,2.52-4.527,5.11-6.859,7.77
		c-2.334,2.66-4.62,5.088-6.86,7.28c-2.24,2.194-4.458,3.99-6.649,5.39c-2.194,1.4-4.318,2.1-6.37,2.1
		c-0.188-3.36-0.07-6.766,0.35-10.22c0.42-3.452,0.98-6.882,1.68-10.29c0.7-3.406,1.471-6.79,2.311-10.15s1.632-6.672,2.38-9.94
		c0.28-1.306,0.56-2.8,0.84-4.48c0.28-1.68,0.606-3.406,0.98-5.18c0.371-1.772,0.84-3.43,1.399-4.97
		c0.561-1.54,1.306-2.822,2.24-3.85c0.56-0.746,0.815-1.492,0.77-2.24c-0.048-0.746-0.304-1.352-0.77-1.82
		c-0.468-0.466-1.074-0.722-1.82-0.77c-0.748-0.046-1.494,0.21-2.239,0.77C637.513,200.572,636.183,202.578,635.297,204.818z
		 M604.779,176.398c1.166-1.772,2.472-3.452,3.92-5.04c1.445-1.586,3.01-2.916,4.689-3.99c1.681-1.072,3.452-1.516,5.32-1.33
		c0.372,2.428,0.092,5.32-0.84,8.68c-0.935,3.36-2.101,6.744-3.5,10.15c-1.4,3.408-2.87,6.65-4.41,9.73
		c-1.54,3.08-2.778,5.508-3.71,7.28c-2.988,5.88-6.324,11.9-10.01,18.06c-3.688,6.16-7.63,12.04-11.83,17.64
		c-0.28-4.76,0.092-9.776,1.12-15.05c1.025-5.272,2.401-10.43,4.13-15.47c1.726-5.04,3.71-9.822,5.95-14.35
		c2.239-4.526,4.386-8.516,6.439-11.97C602.701,179.618,603.61,178.172,604.779,176.398z M575.379,234.498
		c-0.234,3.08,0.162,5.974,1.19,8.68c0.186,0.468,0.35,0.934,0.489,1.4c0.141,0.468,0.302,0.934,0.49,1.4
		c-1.774,1.96-3.57,3.85-5.39,5.67c-1.82,1.82-3.759,3.57-5.811,5.25c-2.147,1.68-4.388,3.244-6.72,4.69
		c-2.334,1.448-4.809,2.544-7.42,3.29c-2.895,0.84-5.508,1.004-7.84,0.49c-2.334-0.512-4.294-1.516-5.88-3.01
		c-1.589-1.492-2.755-3.36-3.5-5.6c-0.746-2.24-0.98-4.712-0.7-7.42c0.28-2.426,1.025-5.296,2.24-8.61
		c1.212-3.312,2.752-6.696,4.619-10.15c1.866-3.452,4.036-6.86,6.511-10.22c2.472-3.36,5.109-6.3,7.91-8.82
		c2.8-2.52,5.691-4.526,8.68-6.02c2.985-1.492,5.926-2.1,8.82-1.82c1.306,0.094,2.565,0.468,3.779,1.12
		c1.212,0.654,2.426,1.354,3.641,2.1c-0.748,2.708-1.425,5.578-2.03,8.61c-0.608,3.034-1.284,6.37-2.03,10.01
		C575.961,228.432,575.61,231.418,575.379,234.498z M563.339,199.078c-3.594,1.494-7.048,3.479-10.36,5.95
		c-3.313,2.474-6.323,5.204-9.029,8.19c-2.708,2.988-4.761,5.694-6.16,8.12c-1.028,1.774-2.265,3.78-3.71,6.02
		c-1.446,2.24-2.822,4.598-4.13,7.07c-1.307,2.474-2.38,4.948-3.221,7.42c-0.84,2.474-1.212,4.878-1.119,7.21
		c0.188,2.148,0.258,4.318,0.21,6.51c-0.046,2.194,0.258,4.318,0.909,6.37c0.748,2.428,2.219,4.668,4.41,6.72
		c2.194,2.052,4.69,3.686,7.49,4.9c2.8,1.212,5.691,1.936,8.68,2.17c2.986,0.231,5.601-0.258,7.84-1.47
		c2.706-1.4,5.366-2.824,7.98-4.27c2.612-1.446,5.271-2.916,7.98-4.41c2.146-1.12,4.151-2.45,6.02-3.99
		c1.866-1.54,3.64-3.242,5.32-5.11c1.306,2.054,2.821,3.828,4.55,5.32c1.726,1.494,3.802,2.52,6.229,3.08
		c3.08,0.654,6.532,0.49,10.36-0.49c3.826-0.98,7.56-2.45,11.2-4.41c3.64-1.96,6.976-4.222,10.01-6.79
		c3.032-2.566,5.342-5.062,6.93-7.49c0.746-1.212,1.282-2.45,1.61-3.71c0.326-1.26,0.771-2.496,1.33-3.71
		c0.56-1.306,1.19-2.496,1.89-3.57c0.7-1.072,1.051-2.31,1.051-3.71c-0.561-2.146-1.961-2.846-4.2-2.1l-0.561,0.28
		c-1.028,0.84-1.448,1.774-1.26,2.8c-0.468,0.654-1.004,1.564-1.61,2.73c-0.607,1.168-1.004,1.984-1.189,2.45
		c-0.469,1.308-0.935,2.38-1.4,3.22c-0.468,0.84-0.979,1.658-1.54,2.45c-0.56,0.794-1.214,1.564-1.96,2.31
		c-0.748,0.748-1.634,1.634-2.66,2.66c-1.96,1.774-4.458,3.57-7.489,5.39c-3.034,1.82-6.16,3.128-9.38,3.92
		c-3.221,0.794-6.324,0.794-9.311,0c-2.988-0.792-5.368-2.87-7.14-6.23c-0.188-0.186-0.28-0.372-0.28-0.56
		c0.28-0.466,0.56-0.886,0.84-1.26c0.28-0.372,0.606-0.792,0.98-1.26c3.172-4.2,5.901-7.84,8.189-10.92
		c2.286-3.08,4.41-6.066,6.37-8.96c1.96-2.892,3.872-5.972,5.74-9.24c1.866-3.266,4.012-7.232,6.439-11.9
		c1.772-3.546,3.312-6.766,4.62-9.66c1.307-2.892,2.45-5.716,3.431-8.47c0.979-2.752,1.89-5.6,2.729-8.54s1.727-6.23,2.66-9.87
		c0.466-1.586,0.466-3.15,0-4.69c-0.468-1.54-0.84-3.102-1.12-4.69c-0.374-1.4-0.888-2.426-1.54-3.08
		c-0.654-0.652-1.68-1.166-3.08-1.54c-1.588-0.28-3.22-0.606-4.899-0.98c-1.681-0.372-3.314-0.372-4.9,0
		c-2.148,0.468-4.294,1.518-6.44,3.15c-2.147,1.634-4.153,3.5-6.02,5.6c-1.868,2.1-3.548,4.27-5.04,6.51
		c-1.494,2.24-2.66,4.2-3.5,5.88c-2.52,5.04-4.62,9.498-6.3,13.37c-1.68,3.874-3.174,7.77-4.48,11.69
		c-1.399-0.746-2.8-1.516-4.199-2.31c-1.4-0.792-2.895-1.33-4.48-1.61C570.36,197.072,566.931,197.586,563.339,199.078z
		 M493.34,210.488c1.54-1.54,3.149-2.892,4.829-4.06c1.681-1.166,3.477-2.03,5.391-2.59c1.912-0.56,3.941-0.56,6.09,0
		c-0.28,0.748-0.654,1.54-1.12,2.38c-1.308,2.148-2.988,4.27-5.04,6.37c-2.054,2.1-4.34,4.108-6.859,6.02
		c-2.521,1.914-5.181,3.664-7.98,5.25c-2.8,1.588-5.6,2.894-8.4,3.92c1.586-2.8,3.196-5.342,4.83-7.63
		c1.632-2.286,2.962-3.99,3.99-5.11C490.375,213.546,491.8,212.028,493.34,210.488z M514.409,213.288
		c1.492-1.726,2.706-3.521,3.641-5.39c0.932-1.866,1.352-3.802,1.26-5.81c-0.094-2.006-1.028-3.896-2.8-5.67
		c-1.868-1.866-4.108-2.94-6.721-3.22c-2.613-0.28-5.25-0.046-7.909,0.7c-2.66,0.748-5.204,1.82-7.631,3.22
		c-2.428,1.4-4.388,2.8-5.88,4.2c-2.52,2.334-5.088,4.948-7.7,7.84c-2.613,2.894-5.088,5.998-7.42,9.31
		c-2.334,3.314-4.363,6.79-6.09,10.43c-1.726,3.64-2.87,7.304-3.43,10.99c-0.561,3.688-0.442,7.35,0.35,10.99
		c0.794,3.64,2.544,7.14,5.25,10.5c1.212,1.494,2.566,2.778,4.061,3.85c1.491,1.074,2.985,2.218,4.479,3.43
		c1.492,1.028,3.15,1.586,4.971,1.68c1.819,0.092,3.615,0.326,5.39,0.7c1.866,0.28,3.802,0.116,5.81-0.49
		c2.006-0.608,3.802-1.05,5.391-1.33c1.771-0.372,3.661-1.026,5.67-1.96c2.006-0.932,4.012-2.006,6.02-3.22
		c2.006-1.211,3.896-2.472,5.67-3.78c1.772-1.306,3.36-2.52,4.761-3.64c4.199-3.452,7.909-7.116,11.13-10.99
		c3.22-3.872,6.229-8.096,9.029-12.67c0.28-0.84,0.326-1.562,0.141-2.17c-0.188-0.605-0.515-1.096-0.98-1.47
		c-0.468-0.372-1.05-0.56-1.75-0.56s-1.378,0.28-2.029,0.84c-2.895,4.108-5.929,7.888-9.101,11.34
		c-3.174,3.454-6.859,6.628-11.06,9.52c-2.895,2.054-5.95,3.944-9.17,5.67c-3.221,1.728-6.559,3.104-10.011,4.13
		c-2.708,0.748-5.368,1.12-7.979,1.12c-1.68,0-3.034-0.116-4.061-0.35c-1.027-0.232-1.96-0.63-2.8-1.19s-1.68-1.236-2.52-2.03
		c-0.84-0.792-1.868-1.75-3.08-2.87c-1.309-1.12-2.219-2.426-2.73-3.92c-0.514-1.492-0.748-3.102-0.699-4.83
		c0.046-1.726,0.325-3.522,0.84-5.39c0.512-1.866,1.142-3.732,1.89-5.6c6.252-0.932,12.25-3.056,17.99-6.37
		c5.74-3.312,10.896-7.021,15.47-11.13C511.47,216.486,512.915,215.016,514.409,213.288z M388.551,195.018
		c-1.494,2.8-2.684,5.834-3.57,9.1c-0.888,3.268-1.61,6.51-2.17,9.73c-0.56,3.22-1.026,5.81-1.4,7.77
		c-1.586,7.748-2.636,15.564-3.15,23.45c-0.512,7.888-1.096,15.798-1.75,23.73c-0.092,1.4-0.186,2.776-0.28,4.13
		c-0.092,1.352-0.232,2.73-0.42,4.13c-2.146,6.72-3.85,13.51-5.11,20.37c-1.26,6.86-1.236,13.882,0.07,21.07
		c0.468,0.84,0.934,1.492,1.4,1.96c0.468,0.466,1.12,0.932,1.96,1.4c0.188,0,0.304,0.022,0.35,0.07
		c0.048,0.046,0.118,0.07,0.21,0.07c1.308,0.186,2.38,0.116,3.22-0.21c0.84-0.328,1.728-1.004,2.66-2.03
		c1.028-4.108,1.68-8.168,1.96-12.18c0.28-4.014,0.606-8.12,0.98-12.32l0.56-8.4c0.932-2.988,1.912-5.974,2.94-8.96
		c1.026-2.988,2.052-5.974,3.08-8.96c3.266-9.52,6.812-18.666,10.64-27.44c3.826-8.772,8.586-17.312,14.28-25.62
		c1.12-1.586,2.636-3.686,4.55-6.3c1.912-2.612,4.036-5.11,6.37-7.49c2.332-2.38,4.782-4.362,7.35-5.95
		c2.566-1.586,5.016-2.192,7.35-1.82c0.466,0.748,0.91,1.448,1.33,2.1c0.42,0.654,0.722,1.354,0.91,2.1
		c0.746,2.8,0.862,5.88,0.35,9.24c-0.514,3.36-1.494,6.814-2.94,10.36c-1.448,3.548-3.244,7.14-5.39,10.78
		c-2.148,3.64-4.41,7.094-6.79,10.36c-2.38,3.268-4.76,6.3-7.14,9.1c-2.38,2.8-4.55,5.18-6.51,7.14v0.14
		c-1.588,1.308-3.314,2.428-5.18,3.36c-1.868,0.934-3.454,2.054-4.76,3.36c-1.868,1.4-1.96,2.94-0.28,4.62l-0.14-0.14
		c0.652,0.468,1.306,0.7,1.96,0.7c0.652,0,1.212-0.231,1.68-0.7c4.666-2.332,9.31-5.622,13.93-9.87c4.62-4.246,8.89-8.912,12.81-14
		c3.92-5.086,7.326-10.336,10.22-15.75c2.892-5.412,4.946-10.452,6.16-15.12c0.651-2.52,1.025-5.552,1.12-9.1
		c0.092-3.546-0.351-6.836-1.33-9.87c-0.98-3.032-2.59-5.482-4.831-7.35c-2.24-1.866-5.32-2.38-9.24-1.54
		c-1.868,0.374-3.734,1.05-5.6,2.03c-1.868,0.98-3.688,2.148-5.46,3.5c-1.774,1.354-3.43,2.754-4.97,4.2
		c-1.54,1.448-2.918,2.824-4.13,4.13c-2.24,2.428-4.154,4.62-5.74,6.58c-1.588,1.96-3.058,3.944-4.41,5.95
		c-1.354,2.008-2.708,4.108-4.06,6.3c-1.354,2.194-2.964,4.738-4.83,7.63c-2.428,3.734-4.574,7.539-6.44,11.41
		c-1.868,3.874-3.594,7.864-5.18,11.97c0.186-4.106,0.49-8.166,0.91-12.18c0.42-4.012,0.91-8.072,1.47-12.18
		c0.092-1.12,0.35-3.126,0.77-6.02c0.42-2.892,0.98-5.95,1.68-9.17c0.7-3.22,1.562-6.206,2.59-8.96c1.026-2.752,2.24-4.55,3.64-5.39
		c0.84-0.466,1.352-1.072,1.54-1.82c0.186-0.746,0.14-1.4-0.14-1.96c-0.28-0.56-0.77-1.002-1.47-1.33
		c-0.7-0.326-1.518-0.302-2.45,0.07C391.957,190.212,390.043,192.218,388.551,195.018z M364.612,182.838
		c0.372-0.28,0.512-0.28,0.42,0c-0.188,0.374-0.49,0.7-0.91,0.98c-0.42,0.28-0.63,0.654-0.63,1.12c0,0.188,0.28,0.164,0.84-0.07
		c0.56-0.232,0.84-0.21,0.84,0.07c0,0.28-0.258,0.398-0.77,0.35c-0.514-0.046-0.818,0.118-0.91,0.49
		c-0.094,0.188,0.07,0.258,0.49,0.21c0.42-0.046,0.722-0.07,0.91-0.07c1.212,0,2.192-0.35,2.94-1.05
		c0.746-0.7,1.352-1.562,1.82-2.59c0.84-0.466,1.352-1.072,1.54-1.82c0.186-0.746,0.14-1.4-0.14-1.96
		c-0.28-0.56-0.77-1.002-1.47-1.33c-0.7-0.326-1.518-0.302-2.45,0.07c-0.188-0.092-0.444-0.116-0.77-0.07
		c-0.328,0.048-0.444-0.022-0.35-0.21c0.186-0.186,0.466-0.21,0.84-0.07c0.372,0.14,0.56,0.07,0.56-0.21
		c0-0.186-0.444-0.42-1.33-0.7c-0.888-0.28-1.378-0.42-1.47-0.42c-0.748,0.094-1.54,0.328-2.38,0.7
		c-0.84,0.374-1.564,0.864-2.17,1.47c-0.608,0.608-1.098,1.284-1.47,2.03c-0.374,0.748-0.42,1.494-0.14,2.24
		c-0.188,0.934-0.07,1.704,0.35,2.31c0.42,0.608,0.932,1.004,1.54,1.19c0.606,0.188,1.236,0.14,1.89-0.14
		c0.652-0.28,1.166-0.886,1.54-1.82C363.958,183.352,364.238,183.118,364.612,182.838z M351.522,204.818
		c-0.888,2.24-1.798,4.528-2.73,6.86c-0.748,1.96-1.61,4.41-2.59,7.35s-1.798,5.39-2.45,7.35c-0.372,1.308-0.98,3.244-1.82,5.81
		c-0.84,2.568-1.656,5.438-2.45,8.61c-0.792,3.174-1.516,6.488-2.17,9.94c-0.652,3.454-0.956,6.674-0.91,9.66
		c0.048,2.988,0.538,5.6,1.47,7.84c0.934,2.24,2.52,3.686,4.76,4.34c1.214,0.372,2.472,0.466,3.78,0.28
		c1.306-0.188,2.612-0.328,3.92-0.42c2.52-0.188,4.97-1.12,7.35-2.8c2.38-1.68,4.712-3.78,7-6.3c2.286-2.52,4.526-5.296,6.72-8.33
		c2.192-3.032,4.34-5.972,6.44-8.82c2.1-2.846,4.106-5.436,6.02-7.77c1.912-2.332,3.802-4.106,5.67-5.32
		c0.84-0.466,1.352-1.072,1.54-1.82c0.186-0.746,0.14-1.4-0.14-1.96c-0.28-0.56-0.77-1.002-1.47-1.33
		c-0.7-0.326-1.518-0.302-2.45,0.07c-2.054,0.934-4.154,2.428-6.3,4.48c-2.148,2.054-4.34,4.34-6.58,6.86
		c-2.24,2.52-4.528,5.11-6.86,7.77c-2.334,2.66-4.62,5.088-6.86,7.28c-2.24,2.194-4.458,3.99-6.65,5.39
		c-2.194,1.4-4.318,2.1-6.37,2.1c-0.188-3.36-0.07-6.766,0.35-10.22c0.42-3.452,0.98-6.882,1.68-10.29
		c0.7-3.406,1.47-6.79,2.31-10.15c0.84-3.36,1.632-6.672,2.38-9.94c0.28-1.306,0.56-2.8,0.84-4.48c0.28-1.68,0.606-3.406,0.98-5.18
		c0.372-1.772,0.84-3.43,1.4-4.97c0.56-1.54,1.306-2.822,2.24-3.85c0.56-0.746,0.816-1.492,0.77-2.24
		c-0.048-0.746-0.304-1.352-0.77-1.82c-0.468-0.466-1.074-0.722-1.82-0.77c-0.749-0.046-1.494,0.21-2.24,0.77
		C353.738,200.572,352.408,202.578,351.522,204.818z M282.154,211.678c-1.96,5.88-3.64,11.9-5.04,18.06s-2.472,12.298-3.22,18.41
		c-0.746,6.114-1.12,11.878-1.12,17.29c0.84,2.334,2.194,3.734,4.06,4.2c1.866,0.466,3.686-0.092,5.46-1.68
		c1.026-1.026,1.96-2.472,2.8-4.34c0.84-1.866,1.586-3.802,2.24-5.81c0.652-2.006,1.236-3.896,1.75-5.67
		c0.512-1.772,0.91-3.126,1.19-4.06c2.332-7,5.226-13.23,8.68-18.69c3.452-5.46,8.072-10.57,13.86-15.33
		c1.12-0.932,2.402-1.936,3.85-3.01c1.446-1.072,2.962-1.982,4.55-2.73c1.586-0.746,3.22-1.282,4.9-1.61
		c1.68-0.326,3.312-0.162,4.9,0.49c1.026,0.468,1.936,1.028,2.73,1.68c0.792,0.654,1.61,1.354,2.45,2.1
		c0.84,0.56,1.61,0.77,2.31,0.63s1.26-0.49,1.68-1.05c0.42-0.56,0.606-1.211,0.56-1.96c-0.048-0.746-0.444-1.446-1.19-2.1
		c-1.028-0.932-2.03-2.006-3.01-3.22c-0.98-1.212-2.17-1.96-3.57-2.24c-1.309-0.28-2.66-0.582-4.06-0.91
		c-1.4-0.326-2.754-0.396-4.06-0.21c-3.548,0.188-7.188,1.238-10.92,3.15c-3.734,1.914-7.328,4.318-10.78,7.21
		c-3.454,2.894-6.65,6.09-9.59,9.59s-5.438,6.979-7.49,10.43c0.932-6.16,2.052-12.086,3.36-17.78
		c1.306-5.692,2.751-10.64,4.34-14.84c0.092-0.84-0.024-1.562-0.35-2.17c-0.328-0.606-0.748-1.026-1.26-1.26
		c-0.514-0.232-1.074-0.256-1.68-0.07c-0.608,0.188-1.19,0.608-1.75,1.26C286.306,200.386,284.114,205.798,282.154,211.678z
		 M238.896,190.958c-1.68,0.188-3.36,0.42-5.04,0.7c-3.548,0.468-7.14,1.774-10.78,3.92c-3.64,2.148-7.07,4.714-10.29,7.7
		c-3.22,2.988-6.09,6.23-8.61,9.73s-4.388,6.884-5.6,10.15c-0.932,2.52-1.61,5.554-2.03,9.1c-0.42,3.548-0.442,7.094-0.07,10.64
		c0.374,3.548,1.238,6.884,2.59,10.01c1.352,3.128,3.336,5.484,5.95,7.07l10.08,5.74c0.652,0.28,1.19,0.514,1.61,0.7
		c0.42,0.188,1.002,0.28,1.75,0.28c5.506-0.28,10.336-1.586,14.49-3.92c4.152-2.332,7.84-5.272,11.06-8.82
		c3.22-3.546,6.02-7.536,8.4-11.97c2.38-4.432,4.55-8.89,6.51-13.37c0.652-1.586,1.212-3.521,1.68-5.81
		c0.466-2.286,0.676-4.62,0.63-7c-0.048-2.38-0.374-4.666-0.98-6.86c-0.608-2.192-1.658-4.036-3.15-5.53
		c-1.308-1.306-2.94-2.1-4.9-2.38c-1.96-0.28-3.874-0.7-5.74-1.26c-0.934-0.28-1.728-0.232-2.38,0.14
		c-0.654,0.374-1.074,0.864-1.26,1.47c-0.188,0.608-0.164,1.26,0.07,1.96c0.232,0.7,0.77,1.284,1.61,1.75
		c1.306,0.468,2.566,0.958,3.78,1.47c1.212,0.514,2.472,1.05,3.78,1.61c0.372,1.028,0.816,2.078,1.33,3.15
		c0.512,1.074,0.722,2.218,0.63,3.43c-0.094,2.988-0.678,5.998-1.75,9.03c-1.074,3.034-2.45,5.95-4.13,8.75
		c-1.68,2.8-3.548,5.46-5.6,7.98c-2.054,2.52-4.108,4.76-6.16,6.72c-0.934,0.934-2.054,1.938-3.36,3.01
		c-1.308,1.074-2.73,2.054-4.27,2.94c-1.54,0.888-3.128,1.564-4.76,2.03c-1.634,0.468-3.244,0.56-4.83,0.28
		c-1.308-0.186-2.544-0.652-3.71-1.4c-1.168-0.746-2.264-1.632-3.29-2.66c-2.428-2.332-4.06-4.97-4.9-7.91
		c-0.84-2.94-1.144-5.926-0.91-8.96c0.232-3.032,0.886-6.02,1.96-8.96c1.072-2.94,2.402-5.67,3.99-8.19
		c1.866-2.986,4.036-5.762,6.51-8.33c2.472-2.566,5.11-4.782,7.91-6.65c1.96-1.306,3.57-2.286,4.83-2.94
		c1.26-0.652,2.496-1.19,3.71-1.61c1.212-0.42,2.52-0.746,3.92-0.98c1.4-0.232,3.172-0.582,5.32-1.05
		c0.932-0.092,1.61-0.442,2.03-1.05c0.42-0.606,0.606-1.236,0.56-1.89c-0.048-0.652-0.35-1.236-0.91-1.75
		c-0.56-0.512-1.308-0.77-2.24-0.77C242.255,190.586,240.575,190.772,238.896,190.958z M157.696,186.198
		c2.8-5.692,5.972-11.2,9.52-16.52c3.546-5.32,7.442-10.29,11.69-14.91c4.246-4.62,8.842-8.702,13.79-12.25
		c1.026-0.746,2.146-1.236,3.36-1.47c1.212-0.232,2.38-0.582,3.5-1.05c0.186,0.094,0.466,0.42,0.84,0.98
		c-0.654,2.428-1.214,4.878-1.68,7.35c-0.468,2.474-1.214,4.878-2.24,7.21c-6.348,13.814-13.93,26.928-22.75,39.34
		c-8.82,12.414-18.924,23.708-30.31,33.88c0.932-4.48,1.936-8.82,3.01-13.02c1.072-4.2,2.402-8.4,3.99-12.6
		C152.467,197.538,154.896,191.892,157.696,186.198z M208.446,150.848c0.606-2.94,1.282-5.902,2.03-8.89
		c0.28-1.12,0.326-2.146,0.14-3.08c-0.188-0.932-0.56-1.82-1.12-2.66s-1.214-1.68-1.96-2.52c-0.748-0.84-1.448-1.726-2.1-2.66
		c-0.84-1.026-1.704-1.656-2.59-1.89c-0.888-0.232-1.984-0.256-3.29-0.07c-2.148,0.749-4.364,1.354-6.65,1.82
		c-2.288,0.468-4.364,1.448-6.23,2.94c-2.614,2.148-5.158,4.294-7.63,6.44c-2.474,2.148-4.924,4.388-7.35,6.72
		c-3.548,3.08-6.698,6.558-9.45,10.43c-2.754,3.874-5.344,7.91-7.77,12.11c-3.36,5.6-6.16,10.92-8.4,15.96
		c-2.24,5.04-4.178,10.08-5.81,15.12c-1.634,5.04-3.08,10.268-4.34,15.68c-1.26,5.414-2.544,11.34-3.85,17.78
		c-0.84,4.294-1.212,8.588-1.12,12.88c0.094,4.294,0.676,8.354,1.75,12.18c1.072,3.828,2.612,7.21,4.62,10.15
		c2.006,2.94,4.502,5.156,7.49,6.65c2.986,1.492,6.486,2.076,10.5,1.75c4.012-0.328,8.492-1.844,13.44-4.55
		c2.706-1.494,5.506-3.29,8.4-5.39c2.892-2.1,5.46-4.27,7.7-6.51c2.426-2.612,4.48-5.11,6.16-7.49c1.68-2.38,3.242-4.76,4.69-7.14
		c1.446-2.38,2.892-4.83,4.34-7.35c1.446-2.52,3.196-5.226,5.25-8.12c0.466-0.84,0.63-1.61,0.49-2.31
		c-0.14-0.7-0.468-1.26-0.98-1.68c-0.514-0.42-1.144-0.606-1.89-0.56c-0.748,0.048-1.448,0.398-2.1,1.05
		c-1.774,2.428-3.338,4.62-4.69,6.58c-1.354,1.96-2.66,3.874-3.92,5.74c-1.26,1.868-2.59,3.78-3.99,5.74
		c-1.4,1.96-3.08,4.154-5.04,6.58c-2.334,2.8-5.018,5.414-8.05,7.84c-3.034,2.428-6.114,4.388-9.24,5.88
		c-3.128,1.494-6.208,2.45-9.24,2.87c-3.034,0.42-5.718,0-8.05-1.26c-2.334-1.26-4.224-3.452-5.67-6.58
		c-1.448-3.126-2.124-7.442-2.03-12.95c0-1.68,0.022-3.36,0.07-5.04c0.046-1.68,0.21-3.36,0.49-5.04
		c13.626-10.172,25.852-21.98,36.68-35.42c10.826-13.44,19.972-27.86,27.44-43.26C206.881,156.612,207.837,153.788,208.446,150.848z
		 M86.156,223.718h0.14h0.14H86.156z M88.116,223.438c0.746-0.186,1.376-0.35,1.89-0.49c0.512-0.14,0.63-0.162,0.35-0.07
		L88.116,223.438z M60.676,158.758c3.826-0.466,7.7-0.886,11.62-1.26c-1.028,2.988-1.984,5.694-2.87,8.12
		c-0.888,2.428-1.728,4.878-2.52,7.35c-0.794,2.474-1.588,5.04-2.38,7.7c-0.794,2.66-1.61,5.718-2.45,9.17
		c-1.214,4.854-2.404,10.198-3.57,16.03c-1.168,5.834-2.264,11.784-3.29,17.85l-0.28,0.28v0.42c-0.094,0.28-0.14,0.654-0.14,1.12
		l-5.18,30.52c-0.094,0.375-0.094,0.514,0,0.42c-1.588,8.308-3.15,16.542-4.69,24.71c-1.54,8.166-3.336,16.402-5.39,24.71
		c-0.186,0.932-0.07,1.702,0.35,2.31c0.42,0.606,0.934,1.001,1.54,1.19c0.608,0.186,1.238,0.14,1.89-0.14
		c0.654-0.28,1.168-0.888,1.54-1.82c1.4-4.014,2.612-7.444,3.64-10.29c1.026-2.848,1.982-5.578,2.87-8.19
		c0.886-2.614,1.75-5.368,2.59-8.26c0.84-2.894,1.772-6.44,2.8-10.64c1.771-7,3.36-14.046,4.76-21.14
		c1.4-7.092,2.752-14.232,4.06-21.42c3.08-0.466,6.462-1.05,10.15-1.75c3.686-0.7,7.162-1.376,10.43-2.03
		c-0.188,0.094-0.048,0.094,0.42,0c0.466-0.092,0.98-0.186,1.54-0.28c-0.374,0-0.934,0.094-1.68,0.28
		c9.612-2.426,19.04-4.386,28.28-5.88c0.84-0.092,1.492-0.42,1.96-0.98c0.466-0.56,0.7-1.142,0.7-1.75
		c0-0.606-0.188-1.166-0.56-1.68c-0.374-0.512-0.98-0.862-1.82-1.05c-5.974-0.746-11.924-1.026-17.85-0.84
		c-5.928,0.188-11.878,1.12-17.85,2.8c-1.96,0.56-3.99,1.26-6.09,2.1c-2.1,0.84-4.13,1.68-6.09,2.52
		c1.772-10.452,3.546-20.836,5.32-31.15c1.772-10.312,3.872-20.65,6.3-31.01c10.36-0.84,20.72-1.4,31.08-1.68
		c1.306,0,2.962-0.021,4.97-0.07c2.006-0.046,4.106-0.046,6.3,0c2.192,0.048,4.34,0.118,6.44,0.21c2.1,0.094,3.896,0.234,5.39,0.42
		c2.986,0.468,5.46,0.864,7.42,1.19c1.96,0.328,3.546,0.63,4.76,0.91c-0.094,0.094-0.14,0.28-0.14,0.56
		c-0.188,0.84-0.118,1.564,0.21,2.17c0.326,0.608,0.746,1.05,1.26,1.33c0.512,0.28,1.096,0.35,1.75,0.21
		c0.652-0.14,1.26-0.536,1.82-1.19c1.026-2.052,1.166-3.85,0.42-5.39c-0.748-1.54-1.984-2.87-3.71-3.99
		c-1.728-1.12-3.78-2.052-6.16-2.8c-2.38-0.746-4.738-1.352-7.07-1.82c-2.334-0.466-4.48-0.816-6.44-1.05
		c-1.96-0.231-3.314-0.396-4.06-0.49c-6.348-0.746-12.718-1.026-19.11-0.84c-6.394,0.188-12.74,0.748-19.04,1.68
		c-6.3,0.934-12.578,2.17-18.83,3.71c-6.254,1.54-12.414,3.244-18.48,5.11c-0.934,0.374-1.54,0.888-1.82,1.54
		c-0.28,0.654-0.326,1.284-0.14,1.89c0.186,0.608,0.582,1.12,1.19,1.54c0.606,0.42,1.376,0.538,2.31,0.35
		C52.976,159.738,56.848,159.226,60.676,158.758z"/>
</g>
<circle fill="#F46889" cx="366.667" cy="116.223" r="12"/>
<circle fill="#F2F2F2" cx="383.667" cy="86.223" r="12"/>
<circle fill="#F2F2F2" cx="354.667" cy="66.223" r="12"/>
<circle fill="#F2F2F2" cx="325.667" cy="96.223" r="12"/>
<circle fill="#F46889" cx="413.667" cy="54.223" r="12"/>
<circle fill="#F46889" cx="401.667" cy="130.223" r="12"/>
<circle fill="#F46889" cx="435.667" cy="139.223" r="12"/>
<circle fill="#F2F2F2" cx="457.667" cy="111.223" r="12"/>
<circle fill="#F2F2F2" cx="420.667" cy="96.223" r="12"/>
<circle fill="#F46889" cx="314.667" cy="39.223" r="12"/>
</svg>
